<?xml version="1.0" standalone="no"?>
<!DOCTYPE svg PUBLIC "-//W3C//DTD SVG 20010904//EN"
 "http://www.w3.org/TR/2001/REC-SVG-20010904/DTD/svg10.dtd">
<svg version="1.0" xmlns="http://www.w3.org/2000/svg"
 width="260.000000pt" height="260.000000pt" viewBox="0 0 260.000000 260.000000"
 preserveAspectRatio="xMidYMid meet">
<metadata>
Created by potrace 1.11, written by Peter Selinger 2001-2013
</metadata>
<g transform="translate(0.000000,260.000000) scale(0.100000,-0.100000)"
fill="#000000" stroke="none">
<path d="M1268 2370 c-10 -6 -18 -18 -18 -25 0 -22 98 -21 107 0 3 9 3 18 0
21 -11 11 -73 14 -89 4z m57 -20 c-28 -12 -57 -12 -50 0 3 6 21 10 38 9 27 0
29 -2 12 -9z"/>
<path d="M1167 2354 c-3 -3 -19 -6 -36 -6 -26 -1 -29 -3 -20 -20 10 -19 29
-25 29 -8 0 6 12 10 28 11 24 0 74 16 62 19 -19 5 -59 8 -63 4z"/>
<path d="M1010 2323 c-46 -23 -47 -49 -2 -47 38 2 85 30 79 47 -6 19 -39 19
-77 0z m45 -12 c-6 -5 -23 -12 -40 -15 l-30 -6 30 14 c35 18 54 20 40 7z"/>
<path d="M880 2278 c-44 -30 -46 -54 -5 -51 34 3 80 34 80 54 0 23 -39 21 -75
-3z m60 -4 c0 -8 -71 -36 -78 -30 -3 3 10 12 29 20 37 17 49 19 49 10z"/>
<path d="M1806 2273 c-14 -14 -5 -31 17 -31 12 1 38 -3 57 -7 32 -8 34 -7 21
8 -7 9 -22 17 -33 17 -11 0 -27 4 -37 10 -10 5 -21 6 -25 3z"/>
<path d="M1954 2238 c-9 -13 31 -48 55 -48 30 0 43 21 24 42 -18 20 -68 24
-79 6z m63 -25 c-9 -8 -48 8 -42 18 4 5 14 5 26 -2 12 -6 18 -13 16 -16z"/>
<path d="M752 2223 c-41 -20 -60 -51 -37 -59 23 -9 61 3 91 29 47 41 10 62
-54 30z m29 -23 c-21 -18 -51 -27 -51 -15 0 6 53 34 65 34 6 0 -1 -9 -14 -19z"/>
<path d="M1416 2215 c-7 -20 11 -27 56 -23 21 2 33 8 33 18 0 22 -80 27 -89 5z"/>
<path d="M1317 2213 c-24 -3 -37 -9 -34 -16 3 -7 11 -10 18 -8 8 2 31 6 52 8
36 5 54 25 20 21 -10 -1 -35 -3 -56 -5z"/>
<path d="M1525 2201 c-8 -14 28 -31 64 -31 33 0 43 23 15 34 -24 9 -72 7 -79
-3z"/>
<path d="M2060 2189 c0 -12 5 -19 13 -16 6 2 27 -4 45 -15 17 -11 32 -16 32
-11 0 12 -29 51 -30 39 0 -4 -11 -1 -25 8 -31 21 -35 20 -35 -5z"/>
<path d="M994 2170 c-44 -10 -109 -30 -145 -45 -69 -29 -183 -101 -213 -134
-11 -12 -24 -21 -30 -21 -6 0 5 14 24 30 22 18 29 30 20 30 -28 0 -62 -31 -57
-51 3 -12 -7 -34 -30 -61 -40 -48 -66 -95 -61 -110 2 -6 17 9 33 33 79 113
316 259 460 283 37 6 35 4 -34 -34 -181 -100 -368 -261 -446 -384 l-38 -60
-18 23 c-11 13 -19 29 -19 37 0 8 -4 14 -10 14 -5 0 -10 -9 -10 -20 0 -19 8
-33 36 -63 9 -9 7 -22 -9 -52 -13 -27 -20 -61 -21 -103 -1 -60 1 -65 32 -93
27 -24 41 -29 86 -29 51 0 55 -2 75 -35 27 -46 42 -46 30 1 -13 45 -5 81 31
137 59 93 270 221 481 291 90 30 315 74 325 63 2 -2 -23 -11 -56 -20 -33 -10
-60 -21 -60 -25 0 -5 30 0 68 9 96 26 302 26 357 0 59 -27 79 -55 80 -107 0
-24 3 -44 8 -44 13 0 28 51 25 84 -2 25 1 30 15 28 9 -2 17 3 17 11 0 22 -11
27 -32 14 -16 -10 -22 -9 -36 9 -29 36 -63 52 -151 70 -95 19 -224 14 -362
-12 -89 -17 -278 -75 -356 -110 -30 -13 -51 -19 -48 -15 15 26 239 103 410
142 l80 19 -67 -5 c-70 -6 -217 -41 -316 -75 -31 -11 -59 -20 -62 -20 -16 1
165 127 228 159 24 12 42 25 39 27 -9 9 -202 -94 -257 -137 -30 -23 -88 -75
-130 -114 -41 -40 -95 -84 -119 -99 -57 -37 -129 -103 -147 -137 -8 -16 -14
-41 -14 -56 -1 -27 -1 -27 -21 10 -24 45 -52 47 -57 4 -4 -34 -15 -34 -42 1
-49 61 -5 190 116 340 77 97 171 168 319 242 91 45 116 65 51 40 -14 -5 -26
-7 -26 -4 0 9 164 81 239 105 39 13 71 27 71 31 0 15 -174 7 -256 -12z m-424
-772 c0 -11 -27 -10 -34 1 -4 5 -3 17 1 27 6 16 7 16 20 -2 7 -10 13 -21 13
-26z"/>
<path d="M1630 2166 c0 -17 37 -46 58 -46 22 0 26 30 6 45 -25 19 -64 19 -64
1z m55 -16 c8 -13 -5 -13 -25 0 -13 8 -13 10 2 10 9 0 20 -4 23 -10z"/>
<path d="M662 2153 c-7 -3 -27 -18 -45 -34 -24 -23 -29 -31 -19 -41 9 -9 12
-9 12 0 0 7 18 25 40 41 37 27 44 45 12 34z"/>
<path d="M1444 2125 c-19 -15 -19 -15 0 -30 26 -20 70 -19 87 1 11 14 10 18
-6 30 -25 18 -56 18 -81 -1z m71 -15 c4 -6 -8 -10 -30 -10 -22 0 -34 4 -30 10
3 6 17 10 30 10 13 0 27 -4 30 -10z"/>
<path d="M1323 2115 c-63 -27 -26 -67 42 -45 37 12 48 43 19 54 -21 8 -24 8
-61 -9z m57 -14 c0 -11 -59 -26 -67 -17 -6 6 33 24 55 25 6 1 12 -3 12 -8z"/>
<path d="M1560 2113 c0 -8 6 -13 13 -12 31 4 68 -2 63 -10 -3 -5 -26 -12 -51
-16 -58 -8 -149 -35 -142 -41 2 -3 31 1 63 8 73 17 233 8 318 -19 32 -10 57
-20 55 -23 -2 -3 4 -16 14 -30 9 -13 17 -42 17 -63 0 -25 4 -36 11 -31 8 4 8
0 0 -15 -17 -30 4 -27 26 5 10 14 27 36 38 47 16 17 20 36 20 85 0 59 -2 66
-30 88 -25 20 -41 24 -102 24 -42 0 -73 -4 -73 -10 0 -5 24 -10 53 -10 88 0
137 -44 137 -123 l0 -32 -22 37 c-12 21 -37 45 -55 53 -41 20 -153 44 -208 46
-35 1 -37 2 -15 9 20 6 21 8 6 9 -11 1 -27 8 -37 17 -23 21 -99 26 -99 7z
m361 -140 c13 -16 12 -17 -3 -4 -10 7 -18 15 -18 17 0 8 8 3 21 -13z m16 -70
c-3 -10 -5 -4 -5 12 0 17 2 24 5 18 2 -7 2 -21 0 -30z"/>
<path d="M1710 2123 c0 -9 70 -56 75 -51 6 6 -9 23 -35 41 -26 18 -40 21 -40
10z"/>
<path d="M2164 2115 c-10 -24 16 -75 37 -75 15 0 19 7 19 33 0 49 -42 80 -56
42z m38 -30 c6 -28 -6 -34 -16 -9 -8 22 -7 34 3 34 5 0 11 -11 13 -25z"/>
<path d="M1182 2090 c-12 -5 -25 -17 -29 -26 -13 -35 44 -39 95 -7 19 11 21
17 11 29 -13 16 -43 17 -77 4z m53 -19 c-16 -15 -65 -25 -65 -13 0 11 21 19
55 21 12 1 15 -3 10 -8z"/>
<path d="M544 2058 c-12 -6 -27 -21 -35 -34 -7 -13 -19 -24 -27 -24 -12 0 -12
-3 -2 -15 15 -18 30 -20 30 -3 0 7 14 27 32 45 34 36 35 46 2 31z"/>
<path d="M1043 2021 c-33 -16 -42 -34 -23 -46 6 -3 13 1 16 9 3 8 21 20 40 26
36 12 47 31 17 29 -10 -1 -33 -9 -50 -18z"/>
<path d="M1333 2025 c-21 -16 -10 -32 27 -40 32 -7 73 10 67 28 -6 18 -74 26
-94 12z m62 -15 c3 -6 -5 -10 -19 -10 -14 0 -28 5 -31 10 -3 6 5 10 19 10 14
0 28 -4 31 -10z"/>
<path d="M1477 2019 c-28 -16 -2 -39 44 -39 38 0 59 14 42 31 -15 15 -67 20
-86 8z m51 -16 c-10 -2 -26 -2 -35 0 -10 3 -2 5 17 5 19 0 27 -2 18 -5z"/>
<path d="M2197 2001 c2 -10 -2 -24 -9 -32 -21 -21 -29 -49 -15 -49 8 0 23 19
36 42 17 32 19 43 9 50 -20 12 -27 9 -21 -11z"/>
<path d="M1607 1990 c-4 -17 -2 -20 10 -16 9 4 31 1 50 -5 19 -6 37 -9 40 -5
9 8 -20 31 -42 32 -11 1 -27 4 -36 8 -12 5 -18 1 -22 -14z"/>
<path d="M1227 1980 c-136 -36 -321 -143 -463 -267 -68 -59 -123 -128 -111
-139 3 -3 18 11 34 31 15 20 60 61 98 92 39 31 60 45 48 32 -40 -44 -25 -42
30 4 101 85 308 208 400 237 20 6 37 16 37 21 0 5 -1 9 -2 8 -2 0 -33 -9 -71
-19z"/>
<path d="M970 1973 c-8 -3 -24 -13 -35 -23 -11 -10 -25 -19 -32 -21 -8 -3 -9
-9 -4 -17 6 -11 14 -8 36 12 15 14 36 28 46 31 11 4 19 11 19 16 0 10 -7 10
-30 2z"/>
<path d="M1749 1954 c-11 -14 -10 -19 10 -35 44 -36 103 -16 65 21 -29 27 -59
33 -75 14z m47 -19 c10 -8 14 -15 7 -15 -19 0 -43 11 -43 21 0 13 14 11 36 -6z"/>
<path d="M441 1934 c-39 -50 -18 -96 25 -53 29 29 36 72 13 77 -9 1 -26 -9
-38 -24z m23 -26 c-10 -18 -19 -28 -21 -21 -5 15 15 53 28 53 5 0 2 -15 -7
-32z"/>
<path d="M833 1891 c-32 -20 -49 -53 -38 -71 12 -19 37 -10 72 25 29 29 33 38
23 50 -16 19 -19 19 -57 -4z m41 -15 c-7 -19 -54 -50 -62 -41 -8 7 43 55 58
55 5 0 7 -6 4 -14z"/>
<path d="M1855 1900 c-3 -5 1 -17 9 -26 9 -8 16 -24 16 -35 0 -11 5 -17 10
-14 16 10 12 35 -9 61 -12 15 -22 20 -26 14z"/>
<path d="M2093 1890 c-41 -25 -45 -60 -8 -60 14 0 37 11 51 25 21 21 23 29 14
40 -16 19 -19 19 -57 -5z m23 -26 c-30 -21 -44 -16 -17 7 13 11 27 17 30 13 3
-3 -3 -12 -13 -20z"/>
<path d="M408 1822 c-9 -32 3 -82 19 -82 10 0 13 6 9 16 -3 9 -6 31 -6 50 0
36 -14 46 -22 16z"/>
<path d="M1978 1819 c-24 -14 -23 -49 1 -49 26 0 66 34 57 48 -9 15 -35 15
-58 1z m27 -19 c-3 -5 -11 -10 -16 -10 -6 0 -7 5 -4 10 3 6 11 10 16 10 6 0 7
-4 4 -10z"/>
<path d="M715 1785 c-33 -32 -33 -65 -2 -65 23 0 77 47 77 67 0 11 -22 23 -41
23 -6 0 -21 -11 -34 -25z m55 0 c0 -10 -45 -45 -59 -45 -10 0 -8 7 9 25 20 22
50 34 50 20z"/>
<path d="M1240 1728 c-17 -13 -26 -15 -35 -8 -19 16 -27 -4 -10 -26 11 -14 17
-16 23 -7 4 7 29 22 55 33 26 12 47 23 47 26 0 11 -60 -2 -80 -18z"/>
<path d="M1499 1714 c-21 -26 15 -47 66 -39 49 7 62 19 45 40 -17 21 -93 20
-111 -1z m86 -14 c-3 -5 -19 -10 -35 -10 -16 0 -32 5 -35 10 -4 6 10 10 35 10
25 0 39 -4 35 -10z"/>
<path d="M1645 1709 c-8 -12 4 -31 15 -24 5 3 27 1 49 -4 23 -5 43 -5 46 -1 5
9 -24 25 -39 21 -5 -1 -22 2 -37 8 -18 6 -31 6 -34 0z"/>
<path d="M1368 1699 c-40 -23 -10 -55 40 -43 34 8 52 22 52 40 0 17 -66 19
-92 3z m47 -19 c-28 -12 -47 -12 -40 0 3 6 18 10 33 9 24 0 25 -1 7 -9z"/>
<path d="M650 1687 c-26 -21 -61 -77 -55 -87 10 -16 25 -12 25 6 0 9 14 34 31
55 30 38 29 51 -1 26z"/>
<path d="M1071 1674 c-57 -47 -29 -80 40 -48 41 18 65 47 54 64 -12 19 -63 10
-94 -16z m79 1 c0 -8 -64 -45 -77 -45 -21 0 -15 14 15 32 26 17 62 24 62 13z"/>
<path d="M1780 1665 c0 -8 7 -15 15 -15 8 0 23 -10 35 -22 19 -21 20 -21 20
-2 0 11 -13 27 -29 37 -36 21 -41 21 -41 2z"/>
<path d="M1300 1660 c-7 -4 -19 -6 -27 -3 -7 3 -13 0 -13 -5 0 -11 -38 -28
-52 -24 -12 3 -10 -26 2 -33 5 -3 18 3 29 14 10 10 33 22 50 26 32 7 47 20 33
29 -4 2 -14 1 -22 -4z"/>
<path d="M1500 1645 c-258 -47 -508 -204 -594 -372 -35 -70 -3 -153 67 -171
23 -6 33 -16 39 -37 9 -36 33 -55 68 -55 29 0 70 25 70 43 0 8 -3 8 -12 -1
-19 -19 -56 -14 -69 9 -9 17 -8 23 2 30 19 12 25 11 39 -6 18 -22 87 -28 180
-15 85 12 170 41 170 58 0 6 11 13 25 16 14 4 25 11 25 16 0 6 -11 5 -27 -1
-75 -29 -163 -28 -163 2 0 5 19 30 41 54 73 79 200 138 336 155 72 9 123 1
123 -19 0 -5 -30 -26 -67 -47 -93 -51 -191 -124 -246 -183 -47 -50 -127 -166
-127 -183 0 -6 33 24 74 65 81 82 187 152 391 259 72 37 124 68 117 68 -34 0
-235 -87 -322 -141 -33 -20 -33 -20 -10 -1 69 57 313 181 358 182 6 0 12 5 12
10 0 10 -30 6 -75 -10 -14 -5 -22 -2 -30 14 -48 95 -364 21 -527 -124 -99 -88
-99 -146 0 -143 43 1 44 0 17 -8 -16 -5 -66 -12 -110 -16 -96 -7 -145 11 -145
51 0 30 68 118 110 142 28 17 40 34 23 34 -5 0 -29 -16 -55 -35 -48 -35 -108
-112 -108 -139 0 -8 -9 -20 -20 -26 -18 -10 -20 -8 -20 21 0 50 29 99 100 170
52 52 92 78 186 126 65 34 165 75 222 93 113 35 158 64 146 93 -14 39 -82 45
-214 22z m136 -60 c-11 -8 -26 -15 -33 -15 -7 0 -57 -14 -110 -31 -167 -54
-288 -124 -381 -223 -53 -56 -102 -143 -102 -183 0 -20 -3 -21 -32 -12 -72 20
-89 92 -40 170 53 82 160 159 316 228 127 56 224 80 321 80 72 0 78 -1 61 -14z"/>
<path d="M990 1223 c-8 -3 -19 -12 -23 -19 -4 -8 -17 -14 -27 -14 -22 0 -23
-1 -14 -24 3 -9 13 -16 21 -16 8 0 12 4 9 9 -3 5 10 19 29 32 45 31 48 48 5
32z"/>
<path d="M1983 1641 c-78 -10 -75 -21 6 -21 99 0 161 -36 161 -94 0 -19 -1
-19 -16 2 -32 46 -70 13 -39 -34 11 -17 23 -24 36 -21 35 9 4 -28 -45 -54 -51
-27 -60 -43 -18 -33 15 4 32 7 37 8 6 0 11 -15 13 -35 2 -28 -4 -45 -30 -79
-39 -51 -109 -92 -257 -150 -119 -48 -268 -126 -321 -170 -51 -41 -34 -44 29
-5 50 32 258 125 277 125 5 0 -29 -20 -76 -43 -127 -64 -291 -179 -304 -214
-7 -18 23 -2 48 26 27 30 167 118 234 148 32 14 74 33 94 43 l38 18 -11 -21
c-6 -12 -36 -46 -67 -75 -31 -30 -51 -51 -44 -47 6 3 12 4 12 1 0 -3 -49 -30
-110 -62 -105 -55 -219 -135 -228 -162 -2 -7 29 13 70 43 71 54 208 132 208
120 0 -4 -14 -27 -32 -51 -21 -30 -58 -59 -112 -91 -129 -76 -196 -150 -196
-215 0 -16 7 -8 24 28 27 57 67 92 176 152 88 48 131 89 159 153 16 36 34 55
85 87 70 46 123 100 137 142 6 15 24 33 42 42 47 23 139 108 133 124 -3 8 6
31 20 51 32 48 39 79 25 110 -9 20 -9 28 2 37 65 53 62 154 -7 195 -39 23 -86
30 -153 22z m141 -127 c9 -24 7 -28 -9 -14 -17 14 -20 30 -6 30 5 0 12 -7 15
-16z m-65 -317 c-20 -18 -56 -42 -80 -55 -24 -12 -36 -17 -25 -10 10 7 44 32
75 55 67 50 79 54 30 10z"/>
<path d="M939 1605 c-34 -18 -44 -44 -25 -63 27 -28 106 15 106 58 0 24 -41
27 -81 5z m61 -15 c0 -12 -58 -42 -72 -38 -16 6 32 48 54 48 10 0 18 -4 18
-10z"/>
<path d="M1837 1581 c-6 -22 7 -38 18 -21 3 5 26 10 51 10 24 0 44 4 44 9 0
13 -44 19 -70 9 -15 -6 -26 -5 -30 3 -5 6 -9 3 -13 -10z"/>
<path d="M1984 1585 c-19 -15 -19 -15 0 -30 22 -17 54 -19 76 -5 13 8 13 11 0
24 -24 23 -54 27 -76 11z m56 -15 c12 -8 11 -10 -7 -10 -12 0 -25 5 -28 10 -8
13 15 13 35 0z"/>
<path d="M1109 1565 c-20 -13 -39 -21 -43 -18 -3 4 -6 -1 -6 -10 0 -25 20 -31
35 -9 8 10 28 25 45 32 16 7 30 16 30 21 0 16 -25 10 -61 -16z"/>
<path d="M572 1567 c-6 -6 -13 -24 -17 -40 -4 -15 -11 -27 -17 -27 -5 0 -6 -4
-3 -10 10 -17 35 -11 35 8 0 9 7 30 15 46 8 15 15 30 15 32 0 9 -18 3 -28 -9z"/>
<path d="M1718 1569 c-54 -20 -37 -64 20 -53 35 7 67 37 57 53 -8 13 -40 13
-77 0z m33 -25 c-18 -8 -36 -12 -39 -9 -10 10 21 25 48 24 23 -1 22 -2 -9 -15z"/>
<path d="M1604 1529 c-60 -17 -70 -59 -15 -59 37 0 76 31 68 53 -7 19 -9 19
-53 6z m26 -24 c-7 -8 -24 -15 -39 -14 l-26 1 30 13 c40 18 50 18 35 0z"/>
<path d="M855 1510 c-3 -5 -12 -7 -20 -3 -9 3 -15 -1 -15 -8 0 -20 -41 -58
-56 -52 -20 7 -17 -10 4 -23 21 -14 38 -13 34 3 -1 6 16 27 38 45 22 19 40 38
40 41 0 10 -18 8 -25 -3z"/>
<path d="M1015 1506 c-16 -6 -40 -21 -53 -33 -14 -13 -28 -20 -33 -17 -12 7
-11 -7 1 -26 9 -13 12 -13 21 2 5 10 30 29 54 44 25 14 45 30 45 35 0 5 -1 9
-2 8 -2 -1 -16 -6 -33 -13z"/>
<path d="M1472 1454 c-13 -9 -29 -13 -37 -10 -20 7 -19 -18 0 -34 10 -8 15 -9
15 -1 0 6 18 20 40 31 22 11 40 23 40 25 0 11 -37 4 -58 -11z"/>
<path d="M1338 1394 c-30 -16 -52 -49 -43 -64 18 -30 105 16 105 55 0 29 -20
32 -62 9z m29 -29 c-15 -14 -36 -25 -45 -25 -13 1 -11 6 11 25 15 14 36 25 45
25 13 -1 11 -6 -11 -25z"/>
<path d="M701 1354 c-23 -30 -29 -100 -8 -107 38 -14 85 61 67 108 -12 32 -33
32 -59 -1z m37 -51 c-7 -15 -19 -28 -25 -31 -19 -6 -16 53 4 73 15 15 17 15
25 1 6 -10 4 -26 -4 -43z"/>
<path d="M622 1238 c-23 -63 10 -108 66 -92 15 3 46 6 70 5 57 -3 122 37 122
76 0 2 -14 -7 -31 -21 -52 -44 -116 -48 -134 -8 -11 25 -25 29 -25 8 0 -19
-14 -28 -34 -20 -9 4 -16 21 -18 47 l-3 42 -13 -37z"/>
<path d="M880 1133 c-8 -4 -21 -12 -28 -20 -7 -7 -20 -13 -28 -13 -17 0 -18
-12 -2 -28 16 -16 28 -15 28 2 0 8 14 23 30 33 41 24 41 42 0 26z"/>
<path d="M755 1048 c-49 -26 -62 -78 -20 -78 32 0 67 35 63 62 -4 26 -17 31
-43 16z m15 -43 c-14 -17 -40 -20 -40 -6 0 6 10 17 22 26 26 17 37 3 18 -20z"/>
<path d="M1239 1045 c-41 -22 -50 -65 -14 -65 25 0 69 45 62 63 -8 20 -14 21
-48 2z m16 -25 c-10 -11 -23 -20 -29 -20 -6 1 0 10 13 20 30 26 39 26 16 0z"/>
<path d="M1125 959 c-16 -10 -34 -21 -40 -23 -5 -2 -8 -6 -4 -9 8 -10 109 27
106 38 -6 17 -31 15 -62 -6z"/>
<path d="M668 938 c-9 -7 -18 -30 -21 -50 -5 -33 -3 -38 14 -38 12 0 19 -7 19
-19 0 -23 31 -35 66 -27 15 4 24 14 24 26 0 22 -31 34 -65 26 -18 -5 -25 -1
-30 14 -7 23 2 60 16 60 5 0 9 5 9 10 0 14 -13 13 -32 -2z m77 -108 c4 -6 -5
-10 -19 -10 -14 0 -26 5 -26 10 0 6 9 10 19 10 11 0 23 -4 26 -10z"/>
<path d="M1002 904 c-7 -8 -26 -14 -42 -14 -16 0 -31 -4 -34 -9 -8 -12 46 -21
60 -10 6 5 23 10 38 11 30 3 34 13 9 27 -13 6 -22 5 -31 -5z"/>
<path d="M1397 881 c-19 -17 -37 -28 -41 -24 -3 3 -6 2 -6 -3 0 -12 18 -40 22
-34 2 3 18 22 37 42 43 47 35 60 -12 19z"/>
<path d="M810 865 c-19 -23 -4 -45 29 -45 34 0 77 31 67 48 -10 17 -81 15 -96
-3z m65 -15 c-28 -12 -55 -12 -55 0 0 6 17 10 38 9 30 0 33 -2 17 -9z"/>
<path d="M1296 784 c-21 -20 -20 -53 1 -61 19 -7 53 29 53 58 0 24 -32 25 -54
3z m34 -12 c0 -11 -22 -32 -32 -32 -5 0 -4 9 2 20 11 20 30 28 30 12z"/>
<path d="M1255 673 c-4 -16 -8 -36 -10 -45 -2 -12 3 -18 13 -18 13 0 17 10 18
45 2 50 -12 61 -21 18z"/>
<path d="M1248 558 c-6 -36 2 -58 22 -58 21 0 34 31 25 60 -9 28 -42 26 -47
-2z m32 -13 c0 -8 -4 -15 -10 -15 -5 0 -10 7 -10 15 0 8 5 15 10 15 6 0 10 -7
10 -15z"/>
<path d="M1683 554 c-13 -34 61 -60 86 -30 9 11 8 18 -4 30 -22 21 -74 21 -82
0z m67 -14 c0 -5 -9 -10 -19 -10 -11 0 -23 5 -26 10 -4 6 5 10 19 10 14 0 26
-4 26 -10z"/>
<path d="M1583 535 c-26 -18 -30 -43 -9 -51 22 -9 78 25 74 44 -4 23 -38 26
-65 7z m33 -20 c-23 -17 -36 -19 -36 -6 0 11 18 19 40 20 11 0 10 -3 -4 -14z"/>
<path d="M1785 519 c-4 -5 -4 -13 -1 -16 3 -4 -1 -17 -10 -31 -17 -26 -15 -35
9 -27 8 4 17 22 19 41 4 36 -5 53 -17 33z"/>
<path d="M1510 473 c-23 -9 -60 -45 -60 -60 0 -18 2 -18 50 27 41 38 43 45 10
33z"/>
<path d="M1264 455 c-10 -25 13 -67 34 -63 12 2 17 13 17 38 0 29 -4 36 -23
38 -13 2 -25 -3 -28 -13z m36 -26 c0 -11 -4 -17 -10 -14 -5 3 -10 13 -10 21 0
8 5 14 10 14 6 0 10 -9 10 -21z"/>
<path d="M1104 376 c-30 -13 -64 -50 -64 -69 0 -5 16 5 35 22 50 43 103 43
139 0 14 -17 26 -37 26 -45 0 -9 5 -12 10 -9 16 10 11 61 -8 85 -23 28 -94 36
-138 16z"/>
<path d="M1411 371 c-8 -5 -16 -16 -17 -24 -1 -8 -5 -24 -9 -36 -5 -15 -2 -21
9 -21 9 0 16 9 16 20 0 12 7 32 16 45 17 26 10 32 -15 16z"/>
<path d="M1307 356 c-6 -14 3 -35 29 -75 2 -1 8 0 14 4 7 4 8 10 4 14 -5 3
-16 21 -25 40 -12 28 -17 31 -22 17z"/>
<path d="M911 313 c-27 -33 -20 -42 10 -14 29 27 64 27 82 1 13 -19 15 -19 21
-4 10 26 -13 44 -54 44 -30 0 -43 -6 -59 -27z"/>
<path d="M745 298 c-278 -20 -294 -25 -83 -27 188 -1 198 0 208 19 6 11 7 19
3 18 -4 0 -62 -5 -128 -10z"/>
</g>
</svg>
